<svg width="26" height="27" viewBox="0 0 26 27" fill="none" xmlns="http://www.w3.org/2000/svg">
<g id="cil:album">
<path id="Vector" d="M21.6179 4.88214C19.3323 2.59654 16.2324 1.3125 13 1.3125C9.76769 1.3125 6.66775 2.59654 4.38214 4.88214C2.09654 7.16775 0.8125 10.2677 0.8125 13.5C0.8125 16.7324 2.09654 19.8323 4.38214 22.1179C6.66775 24.4035 9.76769 25.6876 13 25.6876C16.2324 25.6876 19.3323 24.4035 21.6179 22.1179C23.9035 19.8323 25.1876 16.7324 25.1876 13.5C25.1876 10.2677 23.9035 7.16775 21.6179 4.88214ZM13 24.0625C7.17587 24.0625 2.43753 19.3242 2.43753 13.5C2.43753 7.67587 7.17587 2.93753 13 2.93753C18.8242 2.93753 23.5625 7.67587 23.5625 13.5C23.5625 19.3242 18.8242 24.0625 13 24.0625Z" fill="white"/>
<path id="Vector_2" d="M13 8.21875C11.9555 8.21875 10.9344 8.52849 10.0659 9.1088C9.1974 9.68911 8.52049 10.5139 8.12076 11.479C7.72104 12.444 7.61645 13.5059 7.82023 14.5303C8.02401 15.5548 8.527 16.4958 9.26559 17.2344C10.0042 17.973 10.9452 18.476 11.9697 18.6798C12.9941 18.8835 14.056 18.779 15.021 18.3792C15.9861 17.9795 16.8109 17.3026 17.3912 16.4341C17.9715 15.5656 18.2813 14.5445 18.2813 13.5C18.2797 12.0998 17.7227 10.7574 16.7327 9.76734C15.7426 8.77726 14.4002 8.22034 13 8.21875ZM13 17.1562C12.2769 17.1562 11.57 16.9418 10.9687 16.5401C10.3674 16.1383 9.8988 15.5673 9.62207 14.8992C9.34533 14.2311 9.27293 13.4959 9.41401 12.7867C9.55508 12.0775 9.90331 11.426 10.4146 10.9146C10.926 10.4033 11.5775 10.0551 12.2867 9.914C12.9959 9.77293 13.7311 9.84533 14.3992 10.1221C15.0673 10.3988 15.6383 10.8674 16.0401 11.4687C16.4418 12.07 16.6563 12.7769 16.6563 13.5C16.6552 14.4694 16.2696 15.3987 15.5842 16.0842C14.8987 16.7696 13.9694 17.1552 13 17.1562Z" fill="white"/>
<path id="Vector_3" d="M12.1875 12.6875H13.8125V14.3125H12.1875V12.6875ZM13 6.18754V4.56254C11.588 4.55832 10.1956 4.89226 8.9391 5.53642C7.72604 6.15863 6.66985 7.04779 5.84998 8.13703L7.14926 9.113C7.82745 8.20146 8.71016 7.46187 9.72635 6.95376C10.7425 6.44564 11.8638 6.1832 13 6.18754Z" fill="white"/>
</g>
</svg>
