<svg width="30" height="31" viewBox="0 0 30 31" fill="none" xmlns="http://www.w3.org/2000/svg">
<g id="fluent:mic-sparkle-20-regular">
<path id="Vector" d="M19.839 13.0295L19.317 11.4245C19.2737 11.3001 19.1927 11.1922 19.0854 11.1159C18.978 11.0396 18.8495 10.9985 18.7177 10.9985C18.586 10.9985 18.4575 11.0396 18.3501 11.1159C18.2428 11.1922 18.1618 11.3001 18.1185 11.4245L17.5965 13.0295C17.4372 13.5144 17.1678 13.9559 16.8095 14.3195C16.4511 14.683 16.0136 14.9587 15.531 15.125L13.923 15.647C13.7991 15.6906 13.6918 15.7716 13.6159 15.8788C13.54 15.986 13.4992 16.1141 13.4992 16.2455C13.4992 16.3769 13.54 16.505 13.6159 16.6122C13.6918 16.7194 13.7991 16.8004 13.923 16.844L15.531 17.366C16.0206 17.529 16.4653 17.8041 16.8297 18.1695C17.194 18.5349 17.4679 18.9804 17.6295 19.4705L18.1515 21.0755C18.1951 21.1994 18.2761 21.3067 18.3833 21.3826C18.4905 21.4585 18.6186 21.4993 18.75 21.4993C18.8814 21.4993 19.0095 21.4585 19.1167 21.3826C19.2239 21.3067 19.3049 21.1994 19.3485 21.0755L19.872 19.4705C20.0342 18.9819 20.3082 18.5379 20.6723 18.1738C21.0364 17.8097 21.4804 17.5357 21.969 17.3735L23.5755 16.8515C23.6989 16.8076 23.8057 16.7265 23.8812 16.6195C23.9567 16.5125 23.9972 16.3847 23.9972 16.2537C23.9972 16.1228 23.9567 15.995 23.8812 15.888C23.8057 15.781 23.6989 15.6999 23.5755 15.656L23.5455 15.647L21.9375 15.125C21.4489 14.9629 21.0048 14.6891 20.6405 14.3254C20.2762 13.9616 20.0018 13.5179 19.839 13.0295ZM15 22.25C15.6515 22.2509 16.2998 22.1574 16.9245 21.9725C17.0909 22.2469 17.3171 22.4804 17.5861 22.6554C17.8551 22.8304 18.1602 22.9426 18.4785 22.9835C17.6183 23.3839 16.6951 23.6321 15.75 23.717V26.75C15.75 26.9489 15.671 27.1397 15.5303 27.2803C15.3897 27.421 15.1989 27.5 15 27.5C14.8011 27.5 14.6103 27.421 14.4697 27.2803C14.329 27.1397 14.25 26.9489 14.25 26.75V23.717C12.2001 23.5299 10.2942 22.5832 8.90658 21.0629C7.51891 19.5426 6.74971 17.5584 6.75 15.5C6.75 15.3011 6.82902 15.1103 6.96967 14.9697C7.11032 14.829 7.30109 14.75 7.5 14.75C7.69891 14.75 7.88968 14.829 8.03033 14.9697C8.17098 15.1103 8.25 15.3011 8.25 15.5C8.25 17.2902 8.96116 19.0071 10.227 20.273C11.4929 21.5388 13.2098 22.25 15 22.25ZM15 20C15.405 20 15.7965 19.946 16.17 19.847C16.0737 19.6006 15.9245 19.3784 15.733 19.196C15.5414 19.0135 15.3122 18.8753 15.0615 18.791L13.4415 18.266L13.425 18.2585C12.9534 18.0923 12.5551 17.7658 12.2996 17.336C12.0441 16.9061 11.9476 16.4002 12.027 15.9065C12.0089 15.7718 11.9999 15.636 12 15.5V8C12 7.20435 12.3161 6.44129 12.8787 5.87868C13.4413 5.31607 14.2043 5 15 5C15.7956 5 16.5587 5.31607 17.1213 5.87868C17.6839 6.44129 18 7.20435 18 8V9.6245C18.4864 9.45074 19.0194 9.45927 19.5 9.6485V8C19.5 6.80653 19.0259 5.66193 18.182 4.81802C17.3381 3.97411 16.1935 3.5 15 3.5C13.8065 3.5 12.6619 3.97411 11.818 4.81802C10.9741 5.66193 10.5 6.80653 10.5 8V15.5C10.5 16.6935 10.9741 17.8381 11.818 18.682C12.6619 19.5259 13.8065 20 15 20ZM27.0255 22.9475L28.1745 23.3195L28.197 23.3255C28.2856 23.3566 28.3624 23.4144 28.4167 23.491C28.471 23.5675 28.5002 23.6591 28.5002 23.753C28.5002 23.8469 28.471 23.9385 28.4167 24.015C28.3624 24.0916 28.2856 24.1494 28.197 24.1805L27.0495 24.5525C26.7001 24.6684 26.3826 24.8641 26.1222 25.1243C25.8618 25.3844 25.6657 25.7017 25.5495 26.051L25.1775 27.197C25.1464 27.2856 25.0886 27.3624 25.012 27.4167C24.9355 27.471 24.8439 27.5002 24.75 27.5002C24.6561 27.5002 24.5645 27.471 24.488 27.4167C24.4114 27.3624 24.3536 27.2856 24.3225 27.197L23.949 26.051C23.8337 25.701 23.6381 25.3828 23.3779 25.1219C23.1177 24.8609 22.8001 24.6644 22.4505 24.548L21.303 24.173C21.2149 24.1416 21.1387 24.0838 21.0848 24.0074C21.0309 23.931 21.002 23.8398 21.002 23.7463C21.002 23.6527 21.0309 23.5615 21.0848 23.4851C21.1387 23.4087 21.2149 23.3509 21.303 23.3195L22.4505 22.9475C22.7954 22.8285 23.1082 22.6313 23.3642 22.3713C23.6203 22.1114 23.8127 21.7957 23.9265 21.449L24.3 20.303C24.3317 20.2151 24.3898 20.1391 24.4663 20.0854C24.5428 20.0316 24.634 20.0028 24.7275 20.0028C24.821 20.0028 24.9122 20.0316 24.9887 20.0854C25.0652 20.1391 25.1233 20.2151 25.155 20.303L25.5285 21.449C25.6443 21.7982 25.8401 22.1155 26.1003 22.3757C26.3605 22.6359 26.6763 22.8317 27.0255 22.9475Z" fill="white"/>
</g>
</svg>
