<svg width="20" height="19" viewBox="0 0 20 19" fill="none" xmlns="http://www.w3.org/2000/svg">
<path id="Vector" d="M10 18.3375C9.76667 18.3375 9.52933 18.2958 9.288 18.2125C9.04667 18.1291 8.834 17.9958 8.65 17.8125L6.925 16.2375C5.15833 14.6208 3.56233 13.0168 2.137 11.4255C0.711667 9.83414 -0.000666199 8.07981 4.67508e-07 6.16248C4.67508e-07 4.59581 0.525001 3.28748 1.575 2.23748C2.625 1.18748 3.93333 0.662476 5.5 0.662476C6.38333 0.662476 7.21667 0.849809 8 1.22448C8.78333 1.59914 9.45 2.11181 10 2.76248C10.55 2.11248 11.2167 1.60014 12 1.22548C12.7833 0.850809 13.6167 0.663142 14.5 0.662476C16.0667 0.662476 17.375 1.18748 18.425 2.23748C19.475 3.28748 20 4.59581 20 6.16248C20 8.07914 19.2917 9.83747 17.875 11.4375C16.4583 13.0375 14.85 14.6458 13.05 16.2625L11.35 17.8125C11.1667 17.9958 10.9543 18.1291 10.713 18.2125C10.4717 18.2958 10.234 18.3375 10 18.3375ZM9.05 4.76248C8.56667 4.07914 8.05 3.55814 7.5 3.19948C6.95 2.84081 6.28333 2.66181 5.5 2.66248C4.5 2.66248 3.66667 2.99581 3 3.66248C2.33333 4.32914 2 5.16248 2 6.16248C2 7.02914 2.30833 7.95014 2.925 8.92548C3.54167 9.90081 4.27933 10.8465 5.138 11.7625C5.996 12.6791 6.87933 13.5375 7.788 14.3375C8.69667 15.1375 9.434 15.7958 10 16.3125C10.5667 15.7958 11.3043 15.1375 12.213 14.3375C13.1217 13.5375 14.005 12.6791 14.863 11.7625C15.721 10.8458 16.4583 9.90014 17.075 8.92548C17.6917 7.95081 18 7.02981 18 6.16248C18 5.16248 17.6667 4.32914 17 3.66248C16.3333 2.99581 15.5 2.66248 14.5 2.66248C13.7167 2.66248 13.05 2.84181 12.5 3.20048C11.95 3.55914 11.4333 4.07981 10.95 4.76248C10.8333 4.92914 10.6917 5.05414 10.525 5.13748C10.3583 5.22081 10.1833 5.26248 10 5.26248C9.81667 5.26248 9.64167 5.22081 9.475 5.13748C9.30833 5.05414 9.16667 4.92914 9.05 4.76248Z" fill="white"/>
</svg>
