<svg width="24" height="25" viewBox="0 0 24 25" fill="none" xmlns="http://www.w3.org/2000/svg">
<g id="solar:music-note-3-line-duotone">
<g id="Group">
<path id="Vector" d="M12 18.5C12 19.5609 11.5786 20.5783 10.8284 21.3284C10.0783 22.0786 9.06087 22.5 8 22.5C6.93913 22.5 5.92172 22.0786 5.17157 21.3284C4.42143 20.5783 4 19.5609 4 18.5C4 17.4391 4.42143 16.4217 5.17157 15.6716C5.92172 14.9214 6.93913 14.5 8 14.5C9.06087 14.5 10.0783 14.9214 10.8284 15.6716C11.5786 16.4217 12 17.4391 12 18.5Z" stroke="white" stroke-width="1.5"/>
<path id="Vector_2" opacity="0.5" d="M12 18.5V6.5" stroke="white" stroke-width="1.5"/>
<path id="Vector_3" d="M16.117 10.559L13.483 9.24204C13.118 9.06004 12.936 8.96804 12.785 8.85304C12.3944 8.55461 12.1274 8.1228 12.035 7.64004C12 7.45404 12 7.25004 12 6.84204C12 5.87104 12 5.38504 12.12 5.05504C12.2736 4.6314 12.5657 4.27203 12.949 4.03517C13.3323 3.79831 13.7844 3.69784 14.232 3.75004C14.58 3.79004 15.015 4.00804 15.883 4.44204L18.517 5.75904C18.882 5.94104 19.064 6.03204 19.215 6.14804C19.6054 6.44623 19.8723 6.87765 19.965 7.36004C20 7.54704 20 7.75004 20 8.15904C20 9.12904 20 9.61504 19.88 9.94504C19.7266 10.3689 19.4346 10.7285 19.0512 10.9655C18.6679 11.2026 18.2157 11.3032 17.768 11.251C17.42 11.211 16.985 10.993 16.117 10.559Z" stroke="white" stroke-width="1.5" stroke-linecap="round"/>
</g>
</g>
</svg>
