<svg width="42" height="43" viewBox="0 0 42 43" fill="none" xmlns="http://www.w3.org/2000/svg">
<g id="solar:music-notes-bold-duotone">
<path id="Vector" d="M22.3125 22.3891L37.1875 16.4391V26.3318C36.1234 25.6518 34.8631 25.3453 33.6055 25.4607C32.348 25.576 31.1645 26.1066 30.2418 26.9688C29.3191 27.8311 28.7096 28.9759 28.5094 30.2228C28.3092 31.4697 28.5297 32.7478 29.1362 33.8555C29.7426 34.9632 30.7004 35.8376 31.8587 36.3409C33.017 36.8441 34.3098 36.9475 35.5334 36.6347C36.7569 36.322 37.8416 35.611 38.6164 34.6137C39.3911 33.6164 39.812 32.3897 39.8125 31.1268V14.4038C39.8125 12.4036 39.8125 10.7271 39.6725 9.39006C39.6529 9.20585 39.6296 9.02206 39.6025 8.83881C39.466 7.92531 39.228 7.07481 38.7643 6.36256C38.4817 5.92482 38.1124 5.54961 37.6793 5.26006L37.667 5.25131C36.428 4.42881 35.0368 4.48656 33.6035 4.85231C32.2175 5.20581 30.499 5.92506 28.392 6.80706L24.7275 8.34006C23.7388 8.75306 22.9023 9.10481 22.246 9.46706C21.546 9.85206 20.9458 10.3071 20.4943 10.9861C20.0428 11.6651 19.8538 12.3948 19.768 13.1893C19.6875 13.9348 19.6875 14.8431 19.6875 15.9141V29.8301C18.6234 29.15 17.3631 28.8436 16.1055 28.9589C14.848 29.0742 13.6645 29.6049 12.7418 30.4671C11.8191 31.3293 11.2096 32.4741 11.0094 33.721C10.8092 34.9679 11.0297 36.246 11.6362 37.3537C12.2426 38.4615 13.2004 39.3359 14.3587 39.8391C15.517 40.3423 16.8098 40.4457 18.0334 40.133C19.2569 39.8203 20.3416 39.1092 21.1164 38.112C21.8911 37.1147 22.312 35.8879 22.3125 34.6251V22.3891Z" fill="white"/>
<path id="Vector_2" d="M13.5625 4C13.5625 3.6519 13.4242 3.31806 13.1781 3.07192C12.9319 2.82578 12.5981 2.6875 12.25 2.6875C11.9019 2.6875 11.5681 2.82578 11.3219 3.07192C11.0758 3.31806 10.9375 3.6519 10.9375 4V14.08C9.87335 13.4 8.61314 13.0935 7.35555 13.2088C6.09796 13.3242 4.91452 13.8548 3.99181 14.717C3.06911 15.5793 2.45961 16.7241 2.25942 17.971C2.05923 19.2179 2.27973 20.496 2.88616 21.6037C3.49258 22.7114 4.45044 23.5858 5.60873 24.089C6.76701 24.5923 8.05983 24.6957 9.28337 24.3829C10.5069 24.0702 11.5916 23.3592 12.3663 22.3619C13.1411 21.3646 13.562 20.1379 13.5625 18.875V9.25875C14.7858 10.1408 16.24 10.5625 17.5 10.5625C17.8481 10.5625 18.1819 10.4242 18.4281 10.1781C18.6742 9.93194 18.8125 9.5981 18.8125 9.25C18.8125 8.9019 18.6742 8.56806 18.4281 8.32192C18.1819 8.07578 17.8481 7.9375 17.5 7.9375C16.5487 7.91428 15.6323 7.57433 14.896 6.9715C14.1365 6.34675 13.5625 5.3965 13.5625 4Z" fill="#83A4D1"/>
</g>
</svg>
