<svg width="24" height="25" viewBox="0 0 24 25" fill="none" xmlns="http://www.w3.org/2000/svg">
<g id="solar:playlist-broken">
<g id="Group">
<path id="Vector" d="M11 14.5H3M11 18.5H3" stroke="white" stroke-width="1.5" stroke-linecap="round"/>
<path id="Vector_2" d="M18.875 14.618C20.529 15.573 21.355 16.051 21.477 16.739C21.5074 16.9113 21.5074 17.0876 21.477 17.26C21.356 17.95 20.529 18.427 18.875 19.381C17.221 20.336 16.395 20.814 15.737 20.575C15.5726 20.515 15.4199 20.4266 15.286 20.314C14.75 19.864 14.75 18.91 14.75 17C14.75 15.09 14.75 14.135 15.286 13.686C15.42 13.5737 15.5727 13.4857 15.737 13.426C16.394 13.186 17.221 13.664 18.875 14.618Z" stroke="white" stroke-width="1.5"/>
<path id="Vector_3" d="M3 6.5H13.5M20 6.5H17.75M20 10.5H9.5M3 10.5H5.25" stroke="white" stroke-width="1.5" stroke-linecap="round"/>
</g>
</g>
</svg>
