<svg width="29" height="23" viewBox="0 0 29 23" fill="none" xmlns="http://www.w3.org/2000/svg">
<g id="Group 2">
<g id="Group">
<path id="Vector" d="M10.45 9.47505C10.45 8.40092 10.8767 7.37079 11.6362 6.61127C12.3958 5.85174 13.4259 5.42505 14.5 5.42505C15.5741 5.42505 16.6043 5.85174 17.3638 6.61127C18.1233 7.37079 18.55 8.40092 18.55 9.47505V13.525C18.55 14.5992 18.1233 15.6293 17.3638 16.3888C16.6043 17.1484 15.5741 17.575 14.5 17.575C13.4259 17.575 12.3958 17.1484 11.6362 16.3888C10.8767 15.6293 10.45 14.5992 10.45 13.525V9.47505Z" stroke="white" stroke-width="1.5"/>
<path id="Vector_2" opacity="0.5" d="M15.85 9.47498H18.55M15.85 13.525H18.55M10.45 9.47498H11.8M10.45 13.525H11.8" stroke="white" stroke-width="1.5" stroke-linecap="round"/>
<path id="Vector_3" opacity="0.5" d="M3.90796 17.575C5.28496 17.575 6.40006 16.4586 6.40006 15.0829V9.475C6.40006 7.32675 7.25345 5.26648 8.77249 3.74744C10.2915 2.22839 12.3518 1.375 14.5001 1.375C16.6483 1.375 18.7086 2.22839 20.2276 3.74744C21.7467 5.26648 22.6001 7.32675 22.6001 9.475V15.0829C22.6001 16.4599 23.7152 17.575 25.0922 17.575" stroke="white" stroke-width="1.5"/>
<path id="Vector_4" d="M1 12.175C1 11.4589 1.28446 10.7721 1.79081 10.2658C2.29716 9.75944 2.98392 9.47498 3.7 9.47498C4.41608 9.47498 5.10284 9.75944 5.60919 10.2658C6.11554 10.7721 6.4 11.4589 6.4 12.175V14.875C6.4 15.5911 6.11554 16.2778 5.60919 16.7842C5.10284 17.2905 4.41608 17.575 3.7 17.575C2.98392 17.575 2.29716 17.2905 1.79081 16.7842C1.28446 16.2778 1 15.5911 1 14.875V12.175ZM22.6 12.175C22.6 11.4589 22.8845 10.7721 23.3908 10.2658C23.8972 9.75944 24.5839 9.47498 25.3 9.47498C26.0161 9.47498 26.7028 9.75944 27.2092 10.2658C27.7155 10.7721 28 11.4589 28 12.175V14.875C28 15.5911 27.7155 16.2778 27.2092 16.7842C26.7028 17.2905 26.0161 17.575 25.3 17.575C24.5839 17.575 23.8972 17.2905 23.3908 16.7842C22.8845 16.2778 22.6 15.5911 22.6 14.875V12.175Z" stroke="white" stroke-width="1.5"/>
<path id="Vector_5" opacity="0.5" d="M14.5 17.575V21.625" stroke="white" stroke-width="1.5" stroke-linecap="round"/>
</g>
</g>
</svg>
